<?xml version="1.0" encoding="UTF-8"?><svg width="48" height="48" version="1.1" viewBox="0 0 48 48" xmlns="http://www.w3.org/2000/svg" xmlns:xlink="http://www.w3.org/1999/xlink"><!--Generated by IJSVG (https://github.com/iconjar/IJSVG)--><g transform="scale(0.35079)"><path fill="#49A0AE" d="M113.2,23.6338c24.7331,24.7331 24.7331,64.8333 0,89.5664c-24.7331,24.7331 -64.8333,24.7331 -89.5664,1.42109e-14c-24.7331,-24.7331 -24.7331,-64.8333 -1.42109e-14,-89.5664c24.7331,-24.7331 64.8333,-24.7331 89.5664,-1.42109e-14"></path><path fill="#DFF1ED" d="M99.417,55.882c0,3.493 -2.831,6.325 -6.322,6.325h-47.958c-3.492,0 -6.325,-2.832 -6.325,-6.325v-27.93c0,-3.493 2.833,-6.324 6.325,-6.324h47.957c3.491,0 6.322,2.831 6.322,6.324v27.93Z"></path><path fill="#DFF1ED" d="M84.789,70.717c-0.497,0.497 -1.3,0.497 -1.797,0l-6.06,-8.559c-0.494,-0.496 -0.494,-1.299 0,-1.796h13.916c0.495,0.497 0.495,1.3 0,1.796l-6.059,8.559Z"></path><path fill="#B7CAC4" d="M90.185,32.375c0,1.269 -1.027,2.298 -2.298,2.298h-37.685c-1.27,0 -2.298,-1.029 -2.298,-2.298v0c0,-1.27 1.028,-2.298 2.298,-2.298h37.686c1.27,3.55271e-15 2.297,1.029 2.297,2.298v0Z"></path><path fill="#B7CAC4" d="M90.185,41.567c0,1.27 -1.027,2.298 -2.298,2.298h-37.685c-1.27,0 -2.298,-1.028 -2.298,-2.298v0c0,-1.271 1.028,-2.298 2.298,-2.298h37.686c1.27,0.001 2.297,1.028 2.297,2.298v0Z"></path><path fill="#B7CAC4" d="M90.185,50.759c0,1.269 -1.027,2.298 -2.298,2.298h-37.685c-1.27,0 -2.298,-1.029 -2.298,-2.298v0c0,-1.27 1.028,-2.298 2.298,-2.298h37.686c1.27,-0.001 2.297,1.028 2.297,2.298v0Z"></path><path fill="#36858D" d="M76.375,109.274c0,-3.816 -0.382,-6.103 -0.382,-6.103c0,0 4.958,-6.868 5.34,-16.404c0,-1.516 0.743,-12.272 -12.205,-12.759c0,-0.004 0,-0.013 0,-0.018c-0.033,0.003 -0.061,0.01 -0.097,0.01c-0.031,0 -0.061,-0.007 -0.095,-0.009c0,0.004 0,0.014 0,0.018c-12.946,0.486 -12.205,11.243 -12.205,12.759c0.38,9.537 5.34,16.404 5.34,16.404c0,0 -0.384,2.286 -0.384,6.103c-20.593,4.957 -23.456,11.824 -23.456,11.824v3.009c8.974,4.874 19.256,7.643 30.185,7.643c11.437,0 22.155,-3.047 31.416,-8.35v-2.302c0,2.84217e-14 -2.86,-6.868 -23.457,-11.825Z"></path></g></svg>